<svg width="22" height="25" viewBox="0 0 22 25" fill="none" xmlns="http://www.w3.org/2000/svg">
<path d="M10.9588 0C10.0945 0 9.39628 0.698242 9.39628 1.5625V2.43652C5.85624 2.99805 3.14628 6.06445 3.14628 9.76562V11.3965C3.14628 13.6133 2.38944 15.7666 1.00761 17.4951L0.280067 18.4082C-0.00313654 18.7598 -0.0568475 19.2432 0.138465 19.6484C0.333778 20.0537 0.743934 20.3125 1.19315 20.3125H20.7244C21.1736 20.3125 21.5838 20.0537 21.7791 19.6484C21.9744 19.2432 21.9207 18.7598 21.6375 18.4082L20.9099 17.5C19.5281 15.7666 18.7713 13.6133 18.7713 11.3965V9.76562C18.7713 6.06445 16.0613 2.99805 12.5213 2.43652V1.5625C12.5213 0.698242 11.823 0 10.9588 0ZM10.9588 4.6875H11.3494C14.1521 4.6875 16.4275 6.96289 16.4275 9.76562V11.3965C16.4275 13.7354 17.1062 16.0156 18.366 17.9688H3.55155C4.81132 16.0156 5.49003 13.7354 5.49003 11.3965V9.76562C5.49003 6.96289 7.76542 4.6875 10.5682 4.6875H10.9588ZM14.0838 21.875H10.9588H7.83378C7.83378 22.7051 8.16093 23.501 8.74686 24.0869C9.3328 24.6729 10.1287 25 10.9588 25C11.7889 25 12.5848 24.6729 13.1707 24.0869C13.7566 23.501 14.0838 22.7051 14.0838 21.875Z" fill="black"/>
</svg>
