<svg width="21" height="5" viewBox="0 0 21 5" fill="none" xmlns="http://www.w3.org/2000/svg">
<path d="M20.3125 2.34375C20.3125 2.96535 20.0656 3.56149 19.626 4.00103C19.1865 4.44057 18.5904 4.6875 17.9688 4.6875C17.3471 4.6875 16.751 4.44057 16.3115 4.00103C15.8719 3.56149 15.625 2.96535 15.625 2.34375C15.625 1.72215 15.8719 1.12601 16.3115 0.686468C16.751 0.24693 17.3471 0 17.9688 0C18.5904 0 19.1865 0.24693 19.626 0.686468C20.0656 1.12601 20.3125 1.72215 20.3125 2.34375ZM12.5 2.34375C12.5 2.65154 12.4394 2.95631 12.3216 3.24066C12.2038 3.52502 12.0312 3.78339 11.8135 4.00103C11.5959 4.21867 11.3375 4.39131 11.0532 4.50909C10.7688 4.62688 10.464 4.6875 10.1562 4.6875C9.84846 4.6875 9.54369 4.62688 9.25934 4.50909C8.97498 4.39131 8.71661 4.21867 8.49897 4.00103C8.28133 3.78339 8.10869 3.52502 7.99091 3.24066C7.87312 2.95631 7.8125 2.65154 7.8125 2.34375C7.8125 2.03596 7.87312 1.73119 7.99091 1.44684C8.10869 1.16248 8.28133 0.904106 8.49897 0.686468C8.71661 0.468831 8.97498 0.296192 9.25934 0.178407C9.54369 0.0606227 9.84846 0 10.1562 0C10.464 0 10.7688 0.0606227 11.0532 0.178407C11.3375 0.296192 11.5959 0.468831 11.8135 0.686468C12.0312 0.904106 12.2038 1.16248 12.3216 1.44684C12.4394 1.73119 12.5 2.03596 12.5 2.34375ZM2.34375 4.6875C1.72215 4.6875 1.12601 4.44057 0.686468 4.00103C0.24693 3.56149 0 2.96535 0 2.34375C0 1.72215 0.24693 1.12601 0.686468 0.686468C1.12601 0.24693 1.72215 0 2.34375 0C2.96535 0 3.56149 0.24693 4.00103 0.686468C4.44057 1.12601 4.6875 1.72215 4.6875 2.34375C4.6875 2.96535 4.44057 3.56149 4.00103 4.00103C3.56149 4.44057 2.96535 4.6875 2.34375 4.6875Z" fill="black"/>
</svg>
