<svg width="29" height="25" viewBox="0 0 29 25" fill="none" xmlns="http://www.w3.org/2000/svg">
<path d="M28.1097 12.4731C28.1097 13.3519 27.3774 14.0402 26.5475 14.0402H24.9853L25.0195 21.861C25.0292 23.594 23.6282 25 21.8951 25H6.25365C4.53036 25 3.12927 23.5989 3.12927 21.8756V14.0402H1.56219C0.683459 14.0402 0 13.3568 0 12.4731C0 12.0338 0.146455 11.6432 0.488186 11.3015L13.0053 0.390548C13.347 0.0488186 13.7375 0 14.0792 0C14.421 0 14.8115 0.0976375 15.1044 0.341729L20.3085 4.91603V3.12439C20.3085 2.2603 21.0066 1.56219 21.8707 1.56219H23.4329C24.297 1.56219 24.9951 2.2603 24.9951 3.12439V9.03139L27.5727 11.2966C27.9633 11.6383 28.1585 12.0289 28.1097 12.4682V12.4731ZM12.107 9.37316C11.4577 9.37316 10.9353 9.89555 10.9353 10.5448V14.4503C10.9353 15.0995 11.4577 15.6219 12.107 15.6219H16.0125C16.6617 15.6219 17.1841 15.0995 17.1841 14.4503V10.5448C17.1841 9.89555 16.6617 9.37316 16.0125 9.37316H12.107Z" fill="white"/>
</svg>
