<svg width="25" height="29" viewBox="0 0 25 29" fill="none" xmlns="http://www.w3.org/2000/svg">
<path d="M0 4.91071C0 2.19866 2.19866 0 4.91071 0H21.875C23.5993 0 25 1.40067 25 3.125V19.1964C25 20.4408 24.269 21.5179 23.2143 22.0201V25.8929H23.6607C24.4029 25.8929 25 26.49 25 27.2321C25 27.9743 24.4029 28.5714 23.6607 28.5714H4.46429C1.99777 28.5714 0 26.5737 0 24.1071C0 23.9565 0.00558036 23.8058 0.0223214 23.6607H0V4.91071ZM4.46429 22.3214C3.47656 22.3214 2.67857 23.1194 2.67857 24.1071C2.67857 25.0949 3.47656 25.8929 4.46429 25.8929H20.5357V22.3214H4.46429ZM2.67857 20.0167C3.22545 19.7768 3.82812 19.6429 4.46429 19.6429H21.875C22.1205 19.6429 22.3214 19.442 22.3214 19.1964V3.125C22.3214 2.87946 22.1205 2.67857 21.875 2.67857H19.6429V11.5346C19.6429 12.2824 18.7779 12.7009 18.192 12.2321L15.1786 9.82143L12.1652 12.2321C11.5792 12.7009 10.7143 12.2824 10.7143 11.5346V2.67857H4.91071C3.67746 2.67857 2.67857 3.67746 2.67857 4.91071V20.0167Z" fill="black"/>
</svg>
