<svg width="25" height="19" viewBox="0 0 25 19" fill="none" xmlns="http://www.w3.org/2000/svg">
<path d="M3.125 2.34375C2.69531 2.34375 2.34375 2.69531 2.34375 3.125V4.2041L10.7666 11.1182C11.7773 11.9482 13.2275 11.9482 14.2383 11.1182L22.6562 4.2041V3.125C22.6562 2.69531 22.3047 2.34375 21.875 2.34375H3.125ZM2.34375 7.23633V15.625C2.34375 16.0547 2.69531 16.4062 3.125 16.4062H21.875C22.3047 16.4062 22.6562 16.0547 22.6562 15.625V7.23633L15.7227 12.9297C13.8477 14.4678 11.1475 14.4678 9.27734 12.9297L2.34375 7.23633ZM0 3.125C0 1.40137 1.40137 0 3.125 0H21.875C23.5986 0 25 1.40137 25 3.125V15.625C25 17.3486 23.5986 18.75 21.875 18.75H3.125C1.40137 18.75 0 17.3486 0 15.625V3.125Z" fill="black"/>
</svg>
