<svg width="19" height="25" viewBox="0 0 19 25" fill="none" xmlns="http://www.w3.org/2000/svg">
<path d="M0 2.34375C0 1.0498 1.0498 0 2.34375 0V2.34375V21.5527L8.69629 17.0166C9.10156 16.7236 9.65332 16.7236 10.0586 17.0166L16.4062 21.5527V2.34375H2.34375V0H16.4062C17.7002 0 18.75 1.0498 18.75 2.34375V23.8281C18.75 24.2676 18.5059 24.668 18.1152 24.8682C17.7246 25.0684 17.2559 25.0342 16.8994 24.7803L9.375 19.4092L1.85059 24.7803C1.49414 25.0342 1.02539 25.0684 0.634766 24.8682C0.244141 24.668 0 24.2676 0 23.8281V2.34375Z" fill="white"/>
</svg>
