<svg width="29" height="25" viewBox="0 0 29 25" fill="none" xmlns="http://www.w3.org/2000/svg">
<path d="M13.3057 0.27832C13.7451 -0.0927734 14.3848 -0.0927734 14.8242 0.27832L22.6562 6.92871V2.73438C22.6562 2.08496 23.1787 1.5625 23.8281 1.5625C24.4775 1.5625 25 2.08496 25 2.73438V8.91602L27.71 11.2158C28.2031 11.6357 28.2666 12.373 27.8467 12.8662C27.4268 13.3594 26.6894 13.418 26.1963 13.0029L25 11.9873V21.0938C25 23.252 23.2519 25 21.0937 25H7.03124C4.87304 25 3.12499 23.252 3.12499 21.0938V11.9873L1.92871 13.0029C1.43554 13.4229 0.693354 13.3594 0.278315 12.8662C-0.136724 12.373 -0.0781301 11.6309 0.415034 11.2158L13.3057 0.27832ZM5.46874 10V21.0938C5.46874 21.958 6.16699 22.6562 7.03124 22.6562H21.0937C21.958 22.6562 22.6562 21.958 22.6562 21.0938V10L14.0625 2.70996L5.46874 10ZM12.5 14.0625H15.625V10.9375H12.5V14.0625ZM10.1562 10.5469C10.1562 9.46777 11.0303 8.59375 12.1094 8.59375H16.0156C17.0947 8.59375 17.9687 9.46777 17.9687 10.5469V14.4531C17.9687 15.5322 17.0947 16.4062 16.0156 16.4062H12.1094C11.0303 16.4062 10.1562 15.5322 10.1562 14.4531V10.5469Z" fill="black"/>
</svg>
