<svg width="29" height="25" viewBox="0 0 29 25" fill="none" xmlns="http://www.w3.org/2000/svg">
<path d="M13.3035 0.27832C13.7429 -0.0927733 14.3826 -0.0927733 14.822 0.27832L22.654 6.92871V2.73438C22.654 2.08496 23.1765 1.5625 23.8259 1.5625C24.4753 1.5625 24.9978 2.08496 24.9978 2.73438V8.91602L27.7078 11.2158C28.2009 11.6357 28.2644 12.373 27.8445 12.8662C27.4246 13.3594 26.6872 13.418 26.1941 13.0029L24.9978 11.9873V21.0938C24.9978 23.252 23.2497 25 21.0915 25H7.02907C4.87087 25 3.12282 23.252 3.12282 21.0938V11.9873L1.92654 13.0029C1.43337 13.4229 0.691187 13.3594 0.276148 12.8662C-0.138891 12.373 -0.0802967 11.6309 0.412867 11.2158L13.3035 0.27832ZM5.46657 10V21.0938C5.46657 21.958 6.16482 22.6562 7.02907 22.6562H21.0915C21.9558 22.6562 22.654 21.958 22.654 21.0938V10L14.0603 2.70996L5.46657 10ZM12.4978 14.0625H15.6228V10.9375H12.4978V14.0625ZM10.154 10.5469C10.154 9.46777 11.0281 8.59375 12.1072 8.59375H16.0134C17.0925 8.59375 17.9665 9.46777 17.9665 10.5469V14.4531C17.9665 15.5322 17.0925 16.4062 16.0134 16.4062H12.1072C11.0281 16.4062 10.154 15.5322 10.154 14.4531V10.5469Z" fill="white"/>
</svg>
