<svg width="34" height="25" viewBox="0 0 34 25" fill="none" xmlns="http://www.w3.org/2000/svg">
<path d="M4.16667 3.125C3.59375 3.125 3.125 3.59375 3.125 4.16667V5.60547L14.3555 14.8242C15.7031 15.931 17.6367 15.931 18.9844 14.8242L30.2083 5.60547V4.16667C30.2083 3.59375 29.7396 3.125 29.1667 3.125H4.16667ZM3.125 9.64844V20.8333C3.125 21.4062 3.59375 21.875 4.16667 21.875H29.1667C29.7396 21.875 30.2083 21.4062 30.2083 20.8333V9.64844L20.9635 17.2396C18.4635 19.2904 14.8633 19.2904 12.3698 17.2396L3.125 9.64844ZM0 4.16667C0 1.86849 1.86849 0 4.16667 0H29.1667C31.4648 0 33.3333 1.86849 33.3333 4.16667V20.8333C33.3333 23.1315 31.4648 25 29.1667 25H4.16667C1.86849 25 0 23.1315 0 20.8333V4.16667Z" fill="white"/>
</svg>
