<svg width="22" height="25" viewBox="0 0 22 25" fill="none" xmlns="http://www.w3.org/2000/svg">
<path d="M10.9366 0C10.0723 0 9.37406 0.698242 9.37406 1.5625V2.5C5.80961 3.22266 3.12407 6.37695 3.12407 10.1562V11.0742C3.12407 13.3691 2.27934 15.5859 0.755901 17.3047L0.394573 17.71C-0.0155831 18.1689 -0.113239 18.8281 0.135784 19.3896C0.384808 19.9512 0.946331 20.3125 1.56157 20.3125H20.3116C20.9268 20.3125 21.4834 19.9512 21.7373 19.3896C21.9913 18.8281 21.8887 18.1689 21.4786 17.71L21.1172 17.3047C19.5938 15.5859 18.7491 13.374 18.7491 11.0742V10.1562C18.7491 6.37695 16.0635 3.22266 12.4991 2.5V1.5625C12.4991 0.698242 11.8008 0 10.9366 0ZM13.1485 24.0869C13.7344 23.501 14.0616 22.7051 14.0616 21.875H10.9366H7.81156C7.81156 22.7051 8.13871 23.501 8.72465 24.0869C9.31059 24.6729 10.1065 25 10.9366 25C11.7666 25 12.5625 24.6729 13.1485 24.0869Z" fill="white"/>
</svg>
