<svg width="34" height="25" viewBox="0 0 34 25" fill="none" xmlns="http://www.w3.org/2000/svg">
<path d="M3.125 0C1.39974 0 0 1.39974 0 3.125C0 4.10807 0.46224 5.03255 1.25 5.625L15.4167 16.25C16.1589 16.8034 17.1745 16.8034 17.9167 16.25L32.0833 5.625C32.8711 5.03255 33.3333 4.10807 33.3333 3.125C33.3333 1.39974 31.9336 0 30.2083 0H3.125ZM0 7.29167V20.8333C0 23.1315 1.86849 25 4.16667 25H29.1667C31.4648 25 33.3333 23.1315 33.3333 20.8333V7.29167L19.1667 17.9167C17.6823 19.0299 15.651 19.0299 14.1667 17.9167L0 7.29167Z" fill="white"/>
</svg>
