<svg width="25" height="25" viewBox="0 0 25 25" fill="none" xmlns="http://www.w3.org/2000/svg">
<path d="M20.3095 10.1548C20.3095 12.3956 19.5821 14.4657 18.3567 16.1451L24.5374 22.3307C25.1477 22.941 25.1477 23.932 24.5374 24.5423C23.9272 25.1526 22.9361 25.1526 22.3258 24.5423L16.1451 18.3567C14.4657 19.587 12.3956 20.3095 10.1548 20.3095C4.54523 20.3095 0 15.7643 0 10.1548C0 4.54523 4.54523 0 10.1548 0C15.7643 0 20.3095 4.54523 20.3095 10.1548ZM10.1548 17.185C11.078 17.185 11.9922 17.0031 12.8451 16.6498C13.6981 16.2965 14.4731 15.7787 15.1259 15.1259C15.7787 14.4731 16.2965 13.6981 16.6498 12.8451C17.0031 11.9922 17.185 11.078 17.185 10.1548C17.185 9.23154 17.0031 8.31736 16.6498 7.46441C16.2965 6.61147 15.7787 5.83646 15.1259 5.18365C14.4731 4.53083 13.6981 4.01299 12.8451 3.65969C11.9922 3.30638 11.078 3.12454 10.1548 3.12454C9.23154 3.12454 8.31736 3.30638 7.46441 3.65969C6.61147 4.01299 5.83646 4.53083 5.18365 5.18365C4.53083 5.83646 4.01299 6.61147 3.65969 7.46441C3.30638 8.31736 3.12454 9.23154 3.12454 10.1548C3.12454 11.078 3.30638 11.9922 3.65969 12.8451C4.01299 13.6981 4.53083 14.4731 5.18365 15.1259C5.83646 15.7787 6.61147 16.2965 7.46441 16.6498C8.31736 17.0031 9.23154 17.185 10.1548 17.185Z" fill="black"/>
</svg>
