<svg width="27" height="28" viewBox="0 0 27 28" fill="none" xmlns="http://www.w3.org/2000/svg">
<path d="M21.5625 3.6875C21.375 3.6875 21.1992 3.71093 21.041 3.76367C19.9219 4.08593 18.3398 4.38476 16.6875 3.95703C13.3242 3.08398 9.38671 4.39062 6.45117 7.32617C3.51562 10.2617 2.20898 14.1992 3.08202 17.5625C3.50976 19.2148 3.21093 20.7969 2.88867 21.916C2.84179 22.0801 2.81249 22.2559 2.81249 22.4375C2.81249 23.4746 3.65038 24.3125 4.68749 24.3125C4.87499 24.3125 5.05077 24.2891 5.20898 24.2363C6.32812 23.9141 7.91015 23.6094 9.56249 24.043C12.9258 24.916 16.8633 23.6094 19.7988 20.6738C22.7344 17.7383 24.041 13.8008 23.168 10.4375C22.7402 8.78515 23.0391 7.20312 23.3613 6.08398C23.4082 5.91992 23.4375 5.74414 23.4375 5.5625C23.4375 4.52539 22.5996 3.6875 21.5625 3.6875ZM21.5625 0.874996C24.1523 0.874996 26.25 2.97265 26.25 5.5625C26.25 6.01367 26.1855 6.45312 26.0684 6.86914C25.7988 7.79492 25.6523 8.79687 25.8926 9.73437C27.0703 14.2812 25.2539 19.1973 21.791 22.666C18.3281 26.1348 13.4062 27.9512 8.85937 26.7676C7.92187 26.5273 6.92577 26.6738 5.99413 26.9434C5.57812 27.0605 5.13867 27.125 4.68749 27.125C2.09765 27.125 -6.54187e-06 25.0273 -6.54187e-06 22.4375C-6.54187e-06 21.9863 0.0644466 21.5469 0.181634 21.1309C0.451165 20.2051 0.59765 19.2031 0.357415 18.2656C-0.820319 13.7246 0.996087 8.80273 4.46484 5.33984C7.93359 1.87695 12.8496 0.0546835 17.3906 1.23242C18.3281 1.47265 19.3242 1.32617 20.2559 1.05664C20.6719 0.939449 21.1113 0.874996 21.5625 0.874996ZM14.4551 8.78515C11.4082 9.67578 8.80077 12.2832 7.91015 15.3301C7.69335 16.0742 6.9082 16.5019 6.16406 16.2852C5.41992 16.0684 4.99218 15.2832 5.20898 14.5391C6.36913 10.5723 9.69726 7.24414 13.6641 6.08398C14.4082 5.86718 15.1934 6.29492 15.4101 7.03906C15.6269 7.7832 15.1992 8.56836 14.4551 8.78515Z" fill="black"/>
</svg>
