<svg width="26" height="25" viewBox="0 0 26 25" fill="none" xmlns="http://www.w3.org/2000/svg">
<path d="M17.9718 10.158C17.9718 8.08563 17.1486 6.09815 15.6832 4.63277C14.2178 3.16739 12.2303 2.34415 10.158 2.34415C8.08563 2.34415 6.09815 3.16739 4.63277 4.63277C3.16739 6.09815 2.34415 8.08563 2.34415 10.158C2.34415 12.2303 3.16739 14.2178 4.63277 15.6832C6.09815 17.1486 8.08563 17.9718 10.158 17.9718C12.2303 17.9718 14.2178 17.1486 15.6832 15.6832C17.1486 14.2178 17.9718 12.2303 17.9718 10.158ZM16.4628 18.1232C14.734 19.4955 12.5412 20.316 10.158 20.316C4.54667 20.316 0 15.7693 0 10.158C0 4.54667 4.54667 0 10.158 0C15.7693 0 20.316 4.54667 20.316 10.158C20.316 12.5412 19.4955 14.734 18.1232 16.4628L24.6624 23.002C25.1215 23.461 25.1215 24.2034 24.6624 24.6575C24.2034 25.1117 23.461 25.1166 23.0069 24.6575L16.4628 18.1232Z" fill="black"/>
</svg>
