<svg width="22" height="25" viewBox="0 0 22 25" fill="none" xmlns="http://www.w3.org/2000/svg">
<path d="M0 4.6875C0 2.09961 2.09961 0 4.6875 0H9.375V9.31152C9.375 9.96582 10.1318 10.332 10.6445 9.92187L13.2812 7.8125L15.918 9.92187C16.4307 10.332 17.1875 9.96582 17.1875 9.31152V0H18.75H20.3125C21.1768 0 21.875 0.698242 21.875 1.5625V17.1875C21.875 18.0518 21.1768 18.75 20.3125 18.75V21.875C21.1768 21.875 21.875 22.5732 21.875 23.4375C21.875 24.3018 21.1768 25 20.3125 25H18.75H4.6875C2.09961 25 0 22.9004 0 20.3125V4.6875ZM3.125 20.3125C3.125 21.1768 3.82324 21.875 4.6875 21.875H17.1875V18.75H4.6875C3.82324 18.75 3.125 19.4482 3.125 20.3125Z" fill="black"/>
</svg>
