<svg width="27" height="27" viewBox="0 0 27 27" fill="none" xmlns="http://www.w3.org/2000/svg">
<path d="M21.5635 2.81288C21.376 2.81288 21.2002 2.83632 21.042 2.88905C19.9228 3.21132 18.3408 3.51014 16.6885 3.08241C13.3252 2.20936 9.38769 3.516 6.45214 6.45155C3.5166 9.3871 2.20995 13.3246 3.083 16.6879C3.51074 18.3402 3.21191 19.9223 2.88964 21.0414C2.84277 21.2055 2.81347 21.3812 2.81347 21.5629C2.81347 22.6 3.65136 23.4379 4.68847 23.4379C4.87597 23.4379 5.05175 23.4144 5.20995 23.3617C6.3291 23.0394 7.91113 22.7348 9.56347 23.1683C12.9268 24.0414 16.8643 22.7348 19.7998 19.7992C22.7353 16.8637 24.042 12.9262 23.1689 9.56288C22.7412 7.91053 23.04 6.3285 23.3623 5.20936C23.4092 5.0453 23.4385 4.86952 23.4385 4.68788C23.4385 3.65077 22.6006 2.81288 21.5635 2.81288ZM21.5635 0.000377566C24.1533 0.000377566 26.251 2.09803 26.251 4.68788C26.251 5.13905 26.1865 5.5785 26.0693 5.99452C25.7998 6.9203 25.6533 7.92225 25.8935 8.85975C27.0713 13.4066 25.2549 18.3226 21.792 21.7914C18.3291 25.2601 13.4072 27.0765 8.86034 25.893C7.92284 25.6527 6.92675 25.7992 5.99511 26.0687C5.5791 26.1859 5.13964 26.2504 4.68847 26.2504C2.09863 26.2504 0.000970021 24.1527 0.000970021 21.5629C0.000970021 21.1117 0.0654231 20.6723 0.182611 20.2562C0.452142 19.3305 0.598626 18.3285 0.358392 17.391C-0.819343 12.85 0.997064 7.92811 4.46581 4.46522C7.93456 1.00233 12.8506 -0.819935 17.3916 0.357799C18.3291 0.598034 19.3252 0.451549 20.2568 0.182018C20.6728 0.0648306 21.1123 0.000377566 21.5635 0.000377566ZM14.456 7.91053C11.4092 8.80116 8.80175 11.4086 7.91113 14.4555C7.69433 15.1996 6.90917 15.6273 6.16503 15.4105C5.42089 15.1937 4.99316 14.4086 5.20995 13.6644C6.37011 9.69764 9.69824 6.36952 13.665 5.20936C14.4092 4.99257 15.1943 5.4203 15.4111 6.16444C15.6279 6.90858 15.2002 7.69374 14.456 7.91053Z" fill="white"/>
</svg>
