<svg width="22" height="25" viewBox="0 0 22 25" fill="none" xmlns="http://www.w3.org/2000/svg">
<path d="M0 4.29688C0 1.92383 1.92383 0 4.29688 0H19.1406C20.6494 0 21.875 1.22559 21.875 2.73438V16.7969C21.875 17.8857 21.2354 18.8281 20.3125 19.2676V22.6562H20.7031C21.3525 22.6562 21.875 23.1787 21.875 23.8281C21.875 24.4775 21.3525 25 20.7031 25H3.90625C1.74805 25 0 23.252 0 21.0938C0 20.9619 0.00488281 20.8301 0.0195313 20.7031H0V4.29688ZM3.90625 19.5312C3.04199 19.5312 2.34375 20.2295 2.34375 21.0938C2.34375 21.958 3.04199 22.6562 3.90625 22.6562H17.9688V19.5312H3.90625ZM2.34375 17.5146C2.82227 17.3047 3.34961 17.1875 3.90625 17.1875H19.1406C19.3555 17.1875 19.5312 17.0117 19.5312 16.7969V2.73438C19.5312 2.51953 19.3555 2.34375 19.1406 2.34375H17.1875V10.0928C17.1875 10.7471 16.4307 11.1133 15.918 10.7031L13.2812 8.59375L10.6445 10.7031C10.1318 11.1133 9.375 10.7471 9.375 10.0928V2.34375H4.29688C3.21777 2.34375 2.34375 3.21777 2.34375 4.29688V17.5146Z" fill="white"/>
</svg>
