<svg width="22" height="25" viewBox="0 0 22 25" fill="none" xmlns="http://www.w3.org/2000/svg">
<path d="M10.9364 0C10.0721 0 9.37391 0.698242 9.37391 1.5625V2.43652C5.83387 2.99805 3.12391 6.06445 3.12391 9.76562V11.3965C3.12391 13.6133 2.36707 15.7666 0.985236 17.4951L0.257697 18.4082C-0.0255059 18.7598 -0.0792168 19.2432 0.116096 19.6484C0.311408 20.0537 0.721564 20.3125 1.17078 20.3125H20.702C21.1512 20.3125 21.5614 20.0537 21.7567 19.6484C21.952 19.2432 21.8983 18.7598 21.6151 18.4082L20.8876 17.5C19.5057 15.7666 18.7489 13.6133 18.7489 11.3965V9.76562C18.7489 6.06445 16.0389 2.99805 12.4989 2.43652V1.5625C12.4989 0.698242 11.8007 0 10.9364 0ZM10.9364 4.6875H11.327C14.1298 4.6875 16.4052 6.96289 16.4052 9.76562V11.3965C16.4052 13.7354 17.0839 16.0156 18.3436 17.9688H3.52918C4.78895 16.0156 5.46766 13.7354 5.46766 11.3965V9.76562C5.46766 6.96289 7.74305 4.6875 10.5458 4.6875H10.9364ZM14.0614 21.875H10.9364H7.81141C7.81141 22.7051 8.13856 23.501 8.72449 24.0869C9.31043 24.6729 10.1063 25 10.9364 25C11.7665 25 12.5624 24.6729 13.1483 24.0869C13.7343 23.501 14.0614 22.7051 14.0614 21.875Z" fill="white"/>
</svg>
