<svg width="26" height="22" viewBox="0 0 26 22" fill="none" xmlns="http://www.w3.org/2000/svg">
<path d="M6.04149 17.5439C6.67137 17.085 7.4868 16.9678 8.21922 17.2314C9.51317 17.7002 10.9634 17.9688 12.5063 17.9688C18.5952 17.9688 22.6626 14.0381 22.6626 10.1562C22.6626 6.27441 18.5952 2.34375 12.5063 2.34375C6.41746 2.34375 2.35008 6.27441 2.35008 10.1562C2.35008 11.7188 2.95555 13.2227 4.09324 14.5117C4.51317 14.9854 4.71824 15.6104 4.66942 16.2451C4.60106 17.1289 4.3911 17.9395 4.11766 18.6572C4.94774 18.2715 5.63621 17.8418 6.04149 17.5488V17.5439ZM1.04149 19.5264C1.12938 19.3945 1.21239 19.2627 1.29051 19.1309C1.77879 18.3203 2.24266 17.2559 2.33543 16.0596C0.870589 14.3945 0.00633082 12.3584 0.00633082 10.1562C0.00633082 4.5459 5.60203 0 12.5063 0C19.4106 0 25.0063 4.5459 25.0063 10.1562C25.0063 15.7666 19.4106 20.3125 12.5063 20.3125C10.6948 20.3125 8.97606 20 7.42332 19.4385C6.84227 19.8633 5.895 20.4443 4.77196 20.9326C4.03465 21.2549 3.19481 21.5479 2.32567 21.7187C2.2866 21.7285 2.24754 21.7334 2.20848 21.7432C1.99364 21.7822 1.78367 21.8164 1.56395 21.8359C1.55418 21.8359 1.53953 21.8408 1.52977 21.8408C1.28074 21.8652 1.03172 21.8799 0.782698 21.8799C0.465315 21.8799 0.182112 21.6895 0.0600418 21.3965C-0.0620286 21.1035 0.0063308 20.7715 0.226057 20.5469C0.426253 20.3418 0.606917 20.1221 0.777815 19.8877C0.860823 19.7754 0.938948 19.6631 1.01219 19.5508C1.01707 19.541 1.02196 19.5361 1.02684 19.5264H1.04149Z" fill="white"/>
</svg>
