<svg width="25" height="25" viewBox="0 0 25 25" fill="none" xmlns="http://www.w3.org/2000/svg">
<path d="M3.57143 2.67857C3.08036 2.67857 2.67857 3.08036 2.67857 3.57143V21.4286C2.67857 21.9196 3.08036 22.3214 3.57143 22.3214H21.4286C21.9196 22.3214 22.3214 21.9196 22.3214 21.4286V3.57143C22.3214 3.08036 21.9196 2.67857 21.4286 2.67857H3.57143ZM0 3.57143C0 1.60156 1.60156 0 3.57143 0H21.4286C23.3984 0 25 1.60156 25 3.57143V21.4286C25 23.3984 23.3984 25 21.4286 25H3.57143C1.60156 25 0 23.3984 0 21.4286V3.57143ZM11.1607 17.4107V13.8393H7.58929C6.8471 13.8393 6.25 13.2422 6.25 12.5C6.25 11.7578 6.8471 11.1607 7.58929 11.1607H11.1607V7.58929C11.1607 6.8471 11.7578 6.25 12.5 6.25C13.2422 6.25 13.8393 6.8471 13.8393 7.58929V11.1607H17.4107C18.1529 11.1607 18.75 11.7578 18.75 12.5C18.75 13.2422 18.1529 13.8393 17.4107 13.8393H13.8393V17.4107C13.8393 18.1529 13.2422 18.75 12.5 18.75C11.7578 18.75 11.1607 18.1529 11.1607 17.4107Z" fill="white"/>
</svg>
